# xmcd
#
# Track frame offsets:
#	150
#	17997
#	35312
#	48477
#	64100
#
# Disc length: 1195 seconds
#
# Revision: 1
# Processed by: cddbd v1.5.1PL0 Copyright (c) Steve Scherf et al.
# Submitted via: CDex 1.50Beta5
#
DISCID=3c04a905
DTITLE=ラフィン・ノーズ - NEVER TRUST WOMEN
DYEAR=1991
DGENRE=Pop
TTITLE0=TEENAGER
TTITLE1=NEVER TRUST WOMEN
TTITLE2=NO WAR
TTITLE3=COULD BE SO LONELY
TTITLE4=聖者が街にやってくる
EXTD=
EXTT0=
EXTT1=
EXTT2=
EXTT3=
EXTT4=
PLAYORDER=
